<svg id="Layer_1" xmlns="http://www.w3.org/2000/svg" viewBox="0 0 560 257.5"><defs><style>.cls-1{fill:#000;stroke-width:0px;}</style></defs><path class="cls-1" d="M548.78,13.5v196.81l-34.11,34.11H11V38.37l24.87-24.87h512.91M549.78,12.5H35.46l-25.46,25.46v207.46h505.08l34.7-34.7V12.5h0Z"/><polygon class="cls-1" points="549.78 220.27 549.78 210.72 515.08 245.42 524.62 245.42 549.78 220.27"/><polygon class="cls-1" points="543.03 97.25 543.03 132.82 543.03 132.82 543.03 218.38 549.78 218.38 549.78 139.57 549.78 126.38 549.78 90.5 543.03 97.25"/><polygon class="cls-1" points="437.62 238.67 437.62 238.67 402.05 238.67 395.3 245.42 431.18 245.42 444.37 245.42 523.18 245.42 523.18 238.67 437.62 238.67"/><polygon class="cls-1" points="10.48 38.61 10.48 48.15 45.18 13.45 35.63 13.45 10.48 38.61"/><polygon class="cls-1" points="17.23 161.63 17.23 126.05 17.23 126.05 17.23 40.49 10.48 40.49 10.48 119.31 10.48 132.49 10.48 168.37 17.23 161.63"/><polygon class="cls-1" points="122.64 20.2 122.64 20.2 158.21 20.2 164.96 13.45 129.08 13.45 115.89 13.45 37.08 13.45 37.08 20.2 122.64 20.2"/><polygon class="cls-1" points="44.13 33.2 63.64 33.2 63.64 33.2 99.21 33.2 105.96 26.45 70.08 26.45 56.89 26.45 50.87 26.45 41.33 26.45 34.58 33.2 24 43.53 24 53.07 44.13 33.2"/><polygon class="cls-1" points="530.21 210.12 530.21 190.61 530.21 190.61 530.21 155.04 536.96 148.29 536.96 184.17 536.96 197.36 536.96 203.38 536.96 212.92 530.21 219.67 517.39 233 507.84 233 530.21 210.12"/></svg>